<?xml version="1.0" encoding="UTF-8"?>
<svg width="256px" height="256px" viewBox="0 0 256 256" version="1.1" xmlns="http://www.w3.org/2000/svg" xmlns:xlink="http://www.w3.org/1999/xlink">
    <title>logo_avatar</title>
    <g id="logo_avatar" stroke="none" fill="none" fill-rule="evenodd" stroke-width="1">
        <g id="avatar" transform="translate(-0.5, 0.0742)">
            <rect id="Rectangle-path" fill="#1E7EBE" x="0" y="0" width="256" height="256"></rect>
            <path d="M98.0877005,253.866667 L98.0877005,205.39623 L79.5923622,205.39623 C71.1874396,205.39623 63.0391558,201.9204 56.6335886,195.488908 C50.249697,189.078085 46.9333333,180.817391 46.9333333,172.451629 L46.9333333,77.3778519 C46.9333333,68.9845313 50.1959415,61.2879269 56.7471686,55.4833936 C62.9680599,49.9716706 71.0747266,46.9333333 79.5923622,46.9333333 L178.200642,46.9333333 C195.587924,46.9333333 209.066667,59.5947945 209.066667,77.3778519 L209.066667,172.451629 C209.066667,181.093838 205.711287,189.085836 200.397302,195.342503 C194.774657,201.96346 186.615102,205.39623 178.200642,205.39623 L149.593212,205.39623 L98.0877005,253.866667 L98.0877005,253.866667 Z M79.5923622,52.1005736 C72.2911601,52.1005736 65.4928314,54.5885998 60.1805804,59.2950945 C54.7105312,64.1411047 52.1354724,70.4261913 52.1354724,77.3778519 L52.1354724,172.451629 C52.1354724,187.306583 64.766266,201.090197 79.5923622,201.090197 L103.28984,201.090197 L103.28984,242.317885 L147.602527,201.090197 L178.201509,201.090197 C185.109949,201.090197 191.817241,197.945931 196.46882,192.466934 C200.953064,187.186875 203.864528,179.809779 203.864528,172.451629 L203.864528,77.3778519 C203.864528,70.1488828 201.057107,63.8147074 196.57373,59.1573015 C191.996714,54.4025792 185.420344,52.1005736 178.201509,52.1005736 L79.5923622,52.1005736 L79.5923622,52.1005736 Z" id="Shape" fill="#FFFFFF" opacity="0.4"></path>
            <polygon id="Path" fill="#FFFFFF" fill-rule="nonzero" opacity="0.800385975" points="85.3333333 164.266667 85.3333333 87.4666667 100.983053 87.4666667 130.883482 136.75581 124.464491 136.824381 153.007056 87.4666667 168.533333 87.4666667 168.533333 164.266667 152.773887 164.266667 153.048203 108.422095 155.983383 109.478095 132.501945 149.112381 121.405869 149.112381 97.1974942 109.478095 99.926937 108.422095 100.201253 164.266667"></polygon>
        </g>
    </g>
</svg>