<svg height="48" viewBox="0 0 162 48" width="162" xmlns="http://www.w3.org/2000/svg" xmlns:xlink="http://www.w3.org/1999/xlink"><linearGradient id="a" x1="-1.928798%" x2="98.994856%" y1="47.352964%" y2="52.118419%"><stop offset="0" stop-color="#1e7ebe"/><stop offset="1" stop-color="#18b0eb"/></linearGradient><g fill="none" fill-rule="evenodd"><path d="m48 29.0153453v-18.6189259h3.8116284l7.2825153 11.9493607-1.5634024.016624 6.9517956-11.9659847h3.781563v18.6189259h-3.8383533l.0668121-13.538619.7148891.2560103-5.7191129 9.6086956h-2.7025481l-5.8961649-9.6086956.6647801-.2560103.066812 13.538619zm24.4415243 0v-13.4322251h3.9018247v13.4322251zm1.9509124-15.5601023c-.6503041 0-1.2115255-.2017051-1.6836641-.6051151-.4721386-.4034101-.7082079-.942029-.7082079-1.6158568 0-.6826939.2360693-1.225746.7082079-1.62915601.4721386-.40341006 1.03336-.60511509 1.6836641-.60511509s1.2115255.20170503 1.6836641.60511509c.4721386.40341001.7082079.94646211.7082079 1.62915601 0 .6738278-.2360693 1.2124467-.7082079 1.6158568-.4721386.40341-1.03336.6051151-1.6836641.6051151zm11.0122989 21.544757c-1.0066351 0-1.9144441-.0858909-2.7234269-.2576726-.8089828-.1717818-1.5002093-.4203112-2.0736795-.7455883-.5734702-.325277-1.013038-.7170503-1.3187032-1.1753197s-.4584978-.971121-.4584978-1.5385549c0-.4455243.123324-.8650043.3699718-1.2584399.2466479-.3934357.6049276-.7342285 1.0748392-1.0223786.4699115-.28815 1.0417114-.502046 1.7153998-.6416879-.5177935-.283717-.900571-.6034527-1.1483324-.9592072s-.3716421-.7597187-.3716421-1.2118926c0-.40341.1194265-.785763.3582797-1.1470588.2388531-.3612958.5748621-.6849105 1.008027-.970844s.941215-.514237 1.5241503-.6849105 1.2195986-.2582268 1.90999-.2626598l.7416139 1.5194373c-.518907-.0055413-.9501233.0285379-1.2936486.1022379-.3435254.0736999-.6007519.1800937-.7716794.3191815-.1709275.1390879-.2563913.3022805-.2563913.489578 0 .238278.1425324.4208654.4275972.5477622s.741614.2169437 1.3696474.2701407l2.3083569.1928388c1.1213292.0964195 2.0903825.2826087 2.90716.5585678.8167776.2759591 1.4467597.6685635 1.8899464 1.1778133s.6647801 1.1628517.6647801 1.9608056c0 .6771526-.1862387 1.3055414-.558716 1.8851663-.3724772.5796249-.9044683 1.0816709-1.5959732 1.5061381s-1.518861.7550085-2.4820683.991624-2.035541.3549233-3.217001.3549233zm.5244747-2.5002558c1.1491676 0 2.0561414-.1587595 2.7209214-.4762787.6647801-.3175192.9971701-.7284101.9971701-1.2326727 0-.3956521-.206839-.6979326-.620517-.9068414-.4136781-.2089088-1.0586929-.3466112-1.9350445-.4131074l-2.5388586-.1928389c-.4821604.0443308-.8938897.1360401-1.235188.2751279s-.6004735.3164109-.7775255.5319693c-.1770519.2155584-.2655779.4563299-.2655779.7223146 0 .3369139.1483784.6325447.4451354.8868926.2967569.2543478.7179513.4521739 1.2635832.5934782.5456319.1413044 1.1942657.2119565 1.9459014.2119565zm-.1670301-7.6902813c-1.1736654 0-2.2137065-.2127877-3.1201236-.6383632-.906417-.4255754-1.6179655-1.0018755-2.1346455-1.7289002s-.77502-1.5449275-.77502-2.4537085c0-.8921568.2611239-1.7017476.7833715-2.4287723.5222477-.7270248 1.2379719-1.3047102 2.1471728-1.7330563s1.9422825-.6425192 3.0992448-.6425192c1.1513946 0 2.1803004.2127877 3.0867174.6383632.9064171.4255754 1.6207494 1.0004902 2.1429971 1.7247442.5222476.7242541.7833715 1.5380009.7833715 2.4412404 0 .8921569-.25834 1.703133-.77502 2.4329284s-1.2268366 1.3102515-2.1304698 1.7413683-1.9394986.6466752-3.1075962.6466752zm0-2.6997442c.5122258 0 .9698885-.0897699 1.3729879-.2693095.4030995-.1795396.7210136-.4286232.9537423-.7472506.2327287-.3186275.349093-.68685.349093-1.1046676 0-.6283887-.2527723-1.1390238-.7583169-1.5319053-.5055447-.3928815-1.1447134-.5893223-1.9175063-.5893223-.5177936 0-.9782401.0906011-1.3813395.2718031-.4030995.181202-.7196217.4302856-.9495665.7472506-.2299449.3169651-.3449173.6843564-.3449173 1.1021739 0 .625064.2522155 1.1348679.7566466 1.5294118s1.1441567.5918159 1.9191767.5918159zm2.0511304-3.5808184-1.4698655-2.5634272 7.7468592-.3823529-.0100218 3.1120205zm8.5619664 10.486445v-13.4322251h3.901825v1.6657289c.437619-.7425405.999954-1.2750639 1.687004-1.5975703.687051-.3225064 1.432562-.4837596 2.236534-.4837596.29286 0 .558995.0157928.798404.0473785.23941.0315857.473253.0712063.701527.1188619l-.476036 3.9964194c-.289519-.103069-.593514-.1831415-.911984-.2402174-.318471-.0570758-.634715-.0856138-.948732-.0856138-.895282 0-1.633555.2618287-2.21482.785486-.581265.5236572-.871897 1.2692455-.871897 2.2367647v6.9887468zm15.328358.398977c-.90753 0-1.717626-.1731671-2.430289-.5195013-.712662-.3463342-1.274161-.8408994-1.684499-1.4836957-.410337-.6427962-.615506-1.4102728-.615506-2.3024296 0-.7613811.190971-1.4399191.572914-2.0356139.381942-.5956948.96265-1.0866581 1.742124-1.47289s1.767458-.6469522 2.96395-.7821611c1.196493-.1352089 2.60929-.1257886 4.238391.0282609l.046768 2.4769821c-.969888-.156266-1.827031-.2316283-2.571429-.226087s-1.368812.0806266-1.873243.2252558c-.504431.1446291-.886374.3515984-1.145827.6209079-.259454.2693094-.389181.5940324-.389181.9741688 0 .5264279.197096.929838.591287 1.2102302.394191.2803921.925904.4205882 1.595138.4205882.581265 0 1.103513-.1033461 1.566743-.3100384.463231-.2066922.831532-.5050937 1.104905-.8952046.273373-.3901108.410059-.8616794.410059-1.4147059v-3.2283887c0-.5219949-.109683-.979156-.32905-1.3714834-.219366-.3923273-.560386-.6979326-1.023059-.9168158-.462674-.2188832-1.065374-.3283248-1.808102-.3283248-.699299 0-1.392753.1047314-2.080361.3141943-.687607.2094629-1.31926.5258739-1.894957.9492328l-1.023895-2.7097187c.86633-.555243 1.784996-.958376 2.755998-1.209399s1.91695-.3765345 2.837843-.3765345c1.267202 0 2.372663.1997656 3.316384.5992967.94372.3995311 1.676982 1.0126811 2.199787 1.8394501.522804.826769.784206 1.880179.784206 3.1602302v8.3652174h-3.400734v-1.4762149c-.440959.6017903-1.048949 1.0647699-1.823969 1.3889387s-1.652485.4862532-2.632396.4862532zm11.476643-.398977v-13.4322251h3.901825v13.4322251zm1.950913-15.5601023c-.650305 0-1.211526-.2017051-1.683665-.6051151-.472138-.4034101-.708207-.942029-.708207-1.6158568 0-.6826939.236069-1.225746.708207-1.62915601.472139-.40341006 1.03336-.60511509 1.683665-.60511509.650304 0 1.211525.20170503 1.683664.60511509.472138.40341001.708208.94646211.708208 1.62915601 0 .6738278-.23607 1.2124467-.708208 1.6158568-.472139.40341-1.03336.6051151-1.683664.6051151zm5.740826 15.5601023v-13.4322251h3.901825v1.5161125c.521134-.6693947 1.134413-1.1559249 1.839837-1.4595908.705424-.3036658 1.44509-.4554987 2.218996-.4554987 1.259408 0 2.296943.2471441 3.112607.7414322.815664.4942882 1.421149 1.131266 1.816453 1.9109336.395305.7796675.592957 1.5978474.592957 2.4545396v8.7242967h-3.901824v-7.5074169c0-.8589088-.239132-1.5391091-.717395-2.040601s-1.163365-.7522379-2.055306-.7522379c-.576811 0-1.083191.1257886-1.519139.3773657-.435949.2515772-.776134.6040069-1.020555 1.057289-.244421.4532822-.366631.9758312-.366631 1.5676471v7.297954zm23.454376.398977c-1.475433 0-2.769917-.2967392-3.883451-.8902174-1.113534-.5934783-1.980699-1.423295-2.601495-2.4894502-.620795-1.0661551-.931193-2.3101875-.931193-3.7320972 0-1.0362318.180114-1.9890665.540343-2.8585038.360228-.8694373.868-1.6219523 1.523315-2.2575447.655315-.6355925 1.426159-1.1282183 2.312532-1.4778773.886374-.349659 1.858489-.5244885 2.916347-.5244885 1.161417 0 2.19589.2041987 3.103421.6125959.90753.4083973 1.659444.9786019 2.255742 1.7106138.596298.732012 1.011924 1.5898125 1.24688 2.5734016s.253329 2.0533461.05512 3.2092711h-10.342508c.002227.6161978.166752 1.1556479.493574 1.6183504.326823.4627024.785877.8239983 1.377164 1.0838874.591287.2598892 1.281678.3898338 2.071174.3898338.786155 0 1.535286-.1066709 2.247391-.3200128s1.383845-.5377877 2.015219-.9733376l1.294484 2.6631714c-.419803.3302642-.951515.6206308-1.595138.8710997s-1.323714.4449702-2.040274.5835038c-.716559.1385337-1.402775.2078006-2.058647.2078006zm-3.567764-8.8040921h6.363849c-.020043-.7879796-.295086-1.4116582-.825129-1.8710358-.530042-.4593777-1.261634-.6890665-2.194776-.6890665-.927574 0-1.695635.2296888-2.304181.6890665-.608547.4593776-.955134 1.0830562-1.039763 1.8710358z" fill="url(#a)" fill-rule="nonzero"/><path d="m30.8293502.03690997c3.717135.06944206 7.0600003 3.18509612 7.1341046 7.01081038.0487269 7.58645485.0487269 15.17339285 0 22.75990815-.0713392 3.6821201-3.3317436 6.9870189-7.2253524 7.0113538h-6.6802005l-12.0639447 11.1810177v-11.1810177c-2.35216593 0-4.62641793.5366966-7.29718317-.4618803-2.6850208-1.0038907-4.60442018-3.6721567-4.66009056-6.5494735-.04891129-7.5865153-.04891129-15.1734533 0-22.75990815.07072474-3.65379986 3.24123308-6.93804718 7.13410462-7.01081038 7.88602351-.04921329 15.77253861-.04921329 23.65856211 0z" fill="#1e7ebe"/><path d="m9.11757328 28.16v-17.92h3.67498622l6.2969621 10.2465625 5.9197101-10.2465625h3.6459986v17.92h-3.700753l.0644169-11.6918824-4.8248286 8.1558824h-2.6056651l-5.0372291-8.1558824.0577999 11.6918824z" fill="#fff" fill-rule="nonzero"/></g></svg>