<svg width="353" height="50" xmlns="http://www.w3.org/2000/svg"><defs><linearGradient x1="50%" y1="-97.65%" x2="50%" y2="83.96%" id="a"><stop stop-color="#98B9E3" offset="0%"/><stop stop-color="#1E7EBE" offset="100%"/></linearGradient></defs><g fill="url(#a)" fill-rule="evenodd"><path d="M26.38 26.46h-.17L18.33 4.03H.18v4.99h4.98v26.69H.18v4.63h14.23v-4.63H9.79V10.08h1.16L22.1 40.69h3.72l10.77-30.61-.11 25.63h-4.63v4.63h18.51v-4.63h-4.63V9.02h4.63V4.03h-16.6zM60.76 9.5c2.94 0 5-2.05 5-4.77 0-2.66-2-4.66-5-4.66a4.72 4.72 0 0 0-4.93 4.83c0 2.72 1.94 4.6 4.93 4.6ZM64.6 14.35H52.5v4.63h3.91v17.08H52.5v4.28h16.37v-4.28H64.6zM95.29 8.1c-3.5 0-6.16 2.28-7.44 5.88-1.38-.39-3-.55-4.71-.55-7.21 0-11.32 3.55-11.32 8.27 0 3.71 2.27 5.93 6 6.87-3.9.45-6.7 2.83-6.7 5.44 0 2.1 1.3 4.1 4.51 4.77v.28c-3.91.5-5.95 2.33-5.95 4.94 0 3.44 3.87 5.66 12.3 5.66 11.27 0 16.03-3.53 16.03-8.74 0-4.1-2.72-6.63-9.55-6.63h-7.15c-2.94 0-4-.97-4-2.14 0-1 1.06-1.98 2.67-1.98l3.55.03c7.2 0 11.2-3.03 11.2-8.41a7.3 7.3 0 0 0-4.32-6.84c.77-2 1.88-3.01 3-3.12 0 .22-.06.5-.06.71 0 1.67 1.22 2.94 3.16 2.94a3.3 3.3 0 0 0 3.5-3.44c0-2-1.45-3.94-4.72-3.94ZM79.8 40.7h6.66c3.21 0 4.38.62 4.38 2 0 2.06-2.33 3.37-7.88 3.37-5.88 0-7.65-1.2-7.65-2.86 0-1.55 1.44-2.52 4.49-2.52Zm3.6-13.35c-2.55 0-3.82-1.72-3.82-5.43 0-3.72 1.05-5.5 3.55-5.5 2.55 0 3.77 2 3.77 5.5 0 3.71-1.05 5.43-3.5 5.43Z"/><path d="M119.6 13.48c-3.56 0-6.6 2.39-8.38 7.22v-6.35H99.83v4.63h3.92v17.08h-3.92v4.28h16.73v-4.28h-4.98v-12.1c1.07-3.2 3.12-4.87 4.61-4.98 0 .16.12.33.12.44 0 2.55 1.97 3.94 4.41 3.94 2.39 0 4.24-2 4.24-4.77 0-2.72-2.15-5.1-5.37-5.1ZM150.86 35.9c-.89 0-1.55-.28-1.55-1.56V22.53c0-5.38-2.61-9.05-10.43-9.05-6.38 0-12.24 2.28-12.24 7.05 0 2.05 1.43 3.88 4.26 3.88 2.28 0 3.96-1.5 3.96-3.44 0-1.27-.49-2.22-1.32-2.83a7.45 7.45 0 0 1 3.07-.66c3.22 0 4.5 1.22 4.5 4.55v2.27c0 .67 0 .72-3.05 1.17-6.38.83-8.91 1.94-10.63 3.66a6.28 6.28 0 0 0-1.77 4.5c0 4.2 3.36 7.04 7.97 7.04 3.83 0 6.97-1.05 8.63-5.32h.28c.44 3.92 2.94 5.32 6.1 5.32 3.72 0 5.77-2.02 6.83-6.3l-2.8-.93c-.5 1.9-1.2 2.46-1.81 2.46Zm-9.74-5.77c0 3.33-1.45 5.66-3.95 5.66-2.44 0-3.3-1.56-3.3-3.33 0-2.5 1.01-3.77 4.95-4.44 1.39-.28 1.94-.33 2.3-.44v2.55ZM168.17 14.35h-12.1v4.63h3.91v17.08h-3.91v4.28h16.37v-4.28h-4.27M164.34 9.5c2.95 0 5-2.05 5-4.77 0-2.66-2-4.66-5-4.66a4.72 4.72 0 0 0-4.93 4.83c0 2.72 1.94 4.6 4.93 4.6ZM202.7 22.64c0-5.38-2.38-9.16-7.98-9.16-4.77 0-7.33 3-9.47 7.38v-6.5h-11.03v4.62h3.91v17.08h-3.91v4.28h14.6v-4.28h-2.86V25.25c0-3.72 2.65-6.33 5.26-6.33 1.1 0 1.9.33 2.51.89.84.83 1.13 2.22 1.13 3.94v12.31h-3.2v4.27h14.95v-4.27h-3.92V22.64ZM221.47 13.69c-7.82 0-13.64 5.8-13.64 13.68 0 8 5.27 13.54 13.92 13.54 7.27 0 10.93-3.42 11.93-8.76h-4.33c-1.16 3.2-3.1 4.52-6.21 4.52-4.1 0-6.55-2.03-6.88-8.08h17.7c.38-8.54-3.72-14.9-12.49-14.9Zm-5.16 11.34c.34-5.34 2.11-7.38 5-7.38 3 0 4.44 2.04 4.71 7.38h-9.7ZM241.01 31.13a4.9 4.9 0 0 0-5 4.93 4.87 4.87 0 0 0 4.94 4.89c2.83 0 5-2.22 5-4.94a4.87 4.87 0 0 0-4.94-4.88ZM262.93 36.03c-4.33 0-6.54-3.65-6.54-9.08 0-6 2.71-9.48 6.38-9.48 2.16 0 3.5.75 4.27 1.75a3.73 3.73 0 0 0-2.33 3.49c0 2.1 1.44 3.93 4.16 3.93 2.88 0 4.44-2 4.44-4.78 0-3.93-3.83-8.43-11.32-8.43-8.43 0-14.32 5.66-14.32 14.04 0 7.82 5.22 13.27 14.04 13.27 6.55 0 10.43-3.6 11.65-9.3h-4.33c-1.05 3.2-3.1 4.59-6.1 4.59ZM289.76 13.43c-8.05 0-14.1 5.71-14.1 13.7 0 8.05 5.77 13.43 14.04 13.43 7.99 0 14.04-5.66 14.04-13.7 0-8-5.77-13.43-13.98-13.43Zm.1 23.36c-3.54 0-5.32-2.72-5.32-9.77 0-6.99 1.5-9.82 5-9.82 3.6 0 5.32 2.77 5.32 9.76 0 7-1.44 9.83-5 9.83ZM348.62 36.06V22.64c0-5.38-1.94-9.16-7.38-9.16-4.33 0-6.96 2.72-8.85 6.88-.55-4.27-3.08-6.88-7.52-6.88-4.5 0-7.57 3-9.35 7.38v-6.5h-11.4v4.62h3.92v17.08h-3.91v4.28h14.59v-4.28h-2.5V25.25c0-3.72 2.56-6.33 4.89-6.33 1 0 1.68.28 2.18.83.83.83 1.12 2.22 1.12 4v12.31h-2.84v4.28h13.52v-4.28h-2.85V25.25c0-3.72 2.7-6.33 5.03-6.33 1.06 0 1.6.28 2.16.83.84.83 1 2.22 1 4v12.31h-2.85v4.28h14.6v-4.28h-3.56Z"/></g></svg>